<?xml version="1.0" encoding="UTF-8" standalone="no"?>
<svg
   version="1.0"
   width="512.000000pt"
   height="512.000000pt"
   viewBox="0 0 512.000000 512.000000"
   preserveAspectRatio="xMidYMid meet"
   id="svg8"
   sodipodi:docname="relativwenigbartwuchs.svg"
   inkscape:version="1.2.2 (b0a8486, 2022-12-01)"
   xmlns:inkscape="http://www.inkscape.org/namespaces/inkscape"
   xmlns:sodipodi="http://sodipodi.sourceforge.net/DTD/sodipodi-0.dtd"
   xmlns="http://www.w3.org/2000/svg"
   xmlns:svg="http://www.w3.org/2000/svg">
  <defs
     id="defs12" />
  <sodipodi:namedview
     id="namedview10"
     pagecolor="#ffffff"
     bordercolor="#000000"
     borderopacity="0.25"
     inkscape:showpageshadow="2"
     inkscape:pageopacity="0.0"
     inkscape:pagecheckerboard="0"
     inkscape:deskcolor="#d1d1d1"
     inkscape:document-units="pt"
     showgrid="false"
     showguides="true"
     inkscape:zoom="0.52872264"
     inkscape:cx="563.62255"
     inkscape:cy="369.75909"
     inkscape:window-width="1920"
     inkscape:window-height="1147"
     inkscape:window-x="0"
     inkscape:window-y="25"
     inkscape:window-maximized="1"
     inkscape:current-layer="layer1" />
  <g
     inkscape:groupmode="layer"
     id="layer2"
     inkscape:label="Layer 2"
     style="display:inline">
    <path
       d="M 39,1.6 C 36,2.4 31,4.2 28,5.7 20.8,9.2 9.2,20.8 5.7,28 -0.4,40.6 0,25.7 0,256 c 0,230.3 -0.4,215.4 5.7,228 3.5,7.2 15.1,18.8 22.3,22.3 12.6,6.1 -2.3,5.7 228,5.7 230.3,0 215.4,0.4 228,-5.7 7.2,-3.5 18.8,-15.1 22.3,-22.3 6.1,-12.6 5.7,2.3 5.7,-228 C 512,25.7 512.4,40.6 506.3,28 502.8,20.8 491.2,9.2 484,5.7 471.3,-0.4 486.3,0 255.5,0.1 73.9,0.1 43.7,0.3 39,1.6 Z"
       id="path2"
       style="display:inline;fill:#000000;stroke:none;stroke-width:0.1" />
  </g>
  <g
     inkscape:groupmode="layer"
     id="layer1"
     inkscape:label="Layer 1"
     style="fill:#fefefe;fill-opacity:1">
    <path
       d="m 149.3,242.2 c 4.1,11.2 12.1,33 17.8,48.5 5.7,15.5 10.7,27.9 11.1,27.5 0.3,-0.4 8.5,-21.4 18.1,-46.7 9.7,-25.3 17.8,-46.8 18.2,-47.8 0.6,-1.4 2,-1.7 7.5,-1.7 h 6.7 l 17.8,47.2 c 9.8,26 18.1,47.9 18.5,48.6 0.4,0.8 7,-15.5 16,-39.5 8.4,-22.4 16.6,-44.3 18.2,-48.6 l 3,-7.7 h 6.9 c 3.8,0 6.9,0.3 6.9,0.7 0,0.5 -9.7,26.2 -21.4,57.3 l -21.5,56.5 h -7.6 -7.7 l -17.9,-46.4 c -9.8,-25.5 -18,-46.5 -18.2,-46.7 -0.2,-0.2 -8.4,20.7 -18.4,46.4 l -18,46.7 -7.5,0.3 c -6.5,0.2 -7.7,0 -8.3,-1.5 -0.3,-1 -9.8,-26.1 -21,-55.8 -11.2,-29.7 -20.7,-54.8 -21,-55.8 -0.6,-1.5 0.1,-1.7 6.8,-1.7 h 7.5 z"
       id="path381"
       style="fill:#fefefe;stroke:none;stroke-width:0.1;fill-opacity:1" />
    <path
       d="m 114,228.4 v 7.3 l -7.9,0.6 c -18,1.2 -29.9,11.6 -33.6,29.4 -1.1,5.1 -1.5,15 -1.5,39.6 v 32.8 L 63.3,337.8 55.5,337.5 55.2,279.7 55,222 h 7.5 7.5 v 10.2 l 0.1,10.3 2.1,-3 C 80.5,228 93.7,221.3 108.3,221.1 L 114,221 Z"
       id="path379"
       style="fill:#fefefe;stroke:none;stroke-width:0.1;fill-opacity:1" />
    <path
       id="path377"
       style="fill:#fefefe;stroke:none;stroke-width:0.1;fill-opacity:1"
       d="M 340.00049 174 L 340.00049 255.49951 L 340.00049 337.00049 L 347.50049 337.00049 L 355.00049 337.00049 L 355.00049 325.8999 L 355.00049 314.79932 L 358.8999 319.80029 C 363.4999 325.50029 372.59932 331.90059 380.79932 335.10059 C 388.79931 338.10058 404.19962 338.80058 414.09961 336.60059 C 433.99959 332.20059 450.30049 315.99998 455.50049 295.5 C 457.40049 287.90001 457.40049 271.40058 455.50049 263.10059 C 450.80049 243.30061 434.49988 227.0999 414.3999 222.3999 C 404.79991 220.1999 388.59931 220.89991 380.79932 223.8999 C 372.69932 226.9999 363.90009 233.10069 359.6001 238.70068 L 355.99951 243.30029 L 355.99951 208.70068 L 355.99951 174 L 348 174 L 340.00049 174 z M 397.4751 234.37061 C 404.88884 234.30713 413.04991 235.99326 418.8999 238.99951 C 435.19989 247.2995 444.2 267.10051 441 287.50049 C 438.7 302.40047 430.79969 313.50069 418.19971 319.70068 C 410.69971 323.50068 410.50009 323.50049 398.6001 323.50049 C 387.10011 323.50049 386.20068 323.2998 379.70068 320.2998 C 368.50069 314.99981 359.89961 304.1994 357.09961 291.89941 C 355.29961 284.39942 355.80049 270.89931 358.00049 263.79932 C 362.80048 248.29933 376.3005 236.80019 392.50049 234.7002 C 394.09424 234.49395 395.76424 234.38525 397.4751 234.37061 z " />
  </g>
</svg>
