<?xml version="1.0" standalone="no"?>
<!DOCTYPE svg PUBLIC "-//W3C//DTD SVG 20010904//EN"
 "http://www.w3.org/TR/2001/REC-SVG-20010904/DTD/svg10.dtd">
<svg version="1.0" xmlns="http://www.w3.org/2000/svg"
 width="512.000000pt" height="512.000000pt" viewBox="0 0 512.000000 512.000000"
 preserveAspectRatio="xMidYMid meet">

<g transform="translate(0.000000,512.000000) scale(0.100000,-0.100000)"
fill="#000000" stroke="none">
<path d="M390 5104 c-30 -8 -80 -26 -110 -41 -72 -35 -188 -151 -223 -223 -61
-126 -57 23 -57 -2280 0 -2303 -4 -2154 57 -2280 35 -72 151 -188 223 -223
126 -61 -23 -57 2280 -57 2303 0 2154 -4 2280 57 72 35 188 151 223 223 61
126 57 -23 57 2280 0 2303 4 2154 -57 2280 -35 72 -151 188 -223 223 -127 61
23 57 -2285 56 -1816 0 -2118 -2 -2165 -15z m3170 -2071 l0 -346 36 46 c43 56
131 117 212 148 78 30 240 37 336 15 201 -47 364 -209 411 -407 19 -83 19
-248 0 -324 -52 -205 -215 -367 -414 -411 -99 -22 -253 -15 -333 15 -82 32
-173 96 -219 153 l-39 50 0 -111 0 -111 -75 0 -75 0 0 815 0 815 80 0 80 0 0
-347z m-2420 -197 l0 -73 -79 -6 c-180 -12 -299 -116 -336 -294 -11 -51 -15
-150 -15 -396 l0 -328 -77 3 -78 3 -3 578 -2 577 75 0 75 0 0 -102 1 -103 21
30 c83 115 215 182 361 184 l57 1 0 -74z m353 -138 c41 -112 121 -330 178
-485 57 -155 107 -279 111 -275 3 4 85 214 181 467 97 253 178 468 182 478 6
14 20 17 75 17 l67 0 178 -472 c98 -260 181 -479 185 -486 4 -8 70 155 160
395 84 224 166 443 182 486 l30 77 69 0 c38 0 69 -3 69 -7 0 -5 -97 -262 -214
-573 l-215 -565 -76 0 -77 0 -179 464 c-98 255 -180 465 -182 467 -2 2 -84
-207 -184 -464 l-180 -467 -75 -3 c-65 -2 -77 0 -83 15 -3 10 -98 261 -210
558 -112 297 -207 548 -210 558 -6 15 1 17 68 17 l75 0 75 -202z"/>
<path d="M3925 2773 c-162 -21 -297 -136 -345 -291 -22 -71 -27 -206 -9 -281
28 -123 114 -231 226 -284 65 -30 74 -32 189 -32 119 0 121 0 196 38 126 62
205 173 228 322 32 204 -58 402 -221 485 -72 37 -179 54 -264 43z"/>
</g>
</svg>
