<svg width="112" height="117" fill="none" xmlns="http://www.w3.org/2000/svg">
  <path clip-rule="evenodd" d="M62.516 5.102c13.337-3.914 30.329-7.275 40.647 1.996 10.43 9.37 5.475 26.452 6.531 40.391.777 10.265 3.048 20.712-1.193 30.102-4.005 8.867-13.081 13.645-21.086 19.222-7.846 5.466-15.636 10.387-24.899 12.817-12.177 3.194-25.242 8.532-36.704 3.342C13.699 107.488 5.199 95.129 2.07 82.264-.95 69.84 2.715 56.481 9.423 45.578c5.851-9.513 17.901-12.05 26.8-18.834C45.48 19.688 51.331 8.385 62.516 5.102z" stroke="#F0F1F8" stroke-width="2"/>
  <path fill-rule="evenodd" clip-rule="evenodd" d="M60.028 25.466c8.245-2.438 18.749-4.53 25.127 1.243 6.448 5.836 3.385 16.474 4.038 25.156.48 6.393 1.884 12.9-.738 18.748-2.476 5.522-8.087 8.498-13.035 11.971-4.85 3.405-9.665 6.47-15.392 7.983-7.528 1.99-15.604 5.313-22.69 2.081-7.488-3.415-12.742-11.112-14.676-19.125-1.868-7.738.398-16.058 4.545-22.849 3.617-5.924 11.066-7.504 16.567-11.73 5.722-4.394 9.34-11.433 16.254-13.478z" fill="#F0F1F8"/>
  <path d="M44.222 74.364h-9.6a3.052 3.052 0 01-3.067-3.062V46.35a2.664 2.664 0 012.67-2.666h21.188c1.476 0 2.67 1.191 2.67 2.666v20.64c0 .398-.285.681-.682.681a.656.656 0 01-.682-.68V46.294c0-.737-.568-1.304-1.306-1.304H34.225c-.738 0-1.306.567-1.306 1.304v24.95c0 .908.738 1.702 1.704 1.702h9.6c.397 0 .681.284.681.68 0 .397-.284.738-.682.738z" fill="#04233F"/>
  <path d="M38.713 45.047a.656.656 0 01-.682-.68v-5.161c0-.397.284-.68.682-.68.397 0 .681.283.681.68v5.16a.69.69 0 01-.681.68zM50.868 45.047a.656.656 0 01-.681-.68v-5.161c0-.397.284-.68.681-.68.398 0 .682.283.682.68v5.16a.69.69 0 01-.681.68z" fill="#04233F"/>
  <path d="M52.516 39.886h-15.45a1.793 1.793 0 01-1.818-1.815v-3.289c0-1.02.795-1.814 1.818-1.814h15.45c1.022 0 1.817.794 1.817 1.814v3.29c0 1.02-.795 1.814-1.817 1.814zm-15.45-5.557a.448.448 0 00-.455.453v3.29c0 .283.227.453.455.453h15.45a.448.448 0 00.454-.454v-3.289a.448.448 0 00-.454-.453h-15.45zM85.404 62.909c-.114 0-.227-.057-.34-.114-.341-.226-.398-.623-.228-.907l1.988-3.175c.227-.34.227-.794.057-1.191-.227-.397-.568-.567-1.022-.567H65.92c-.398 0-.795.227-1.023.567-.227.397-.17.794.057 1.19l1.988 3.176c.228.34.114.737-.227.907-.34.227-.738.114-.909-.226l-1.988-3.176a2.43 2.43 0 01-.057-2.552c.455-.794 1.25-1.304 2.216-1.304h19.937c.91 0 1.761.51 2.216 1.304.454.794.397 1.758-.057 2.552l-1.988 3.176c-.284.226-.455.34-.682.34zM84.95 88.654H65.012a2.58 2.58 0 01-2.215-1.304c-.455-.794-.398-1.758.057-2.552l1.988-3.175a.669.669 0 01.909-.227c.34.227.397.623.227.907l-1.988 3.175c-.228.34-.228.794-.057 1.191.227.397.568.567 1.022.567H84.95c.397 0 .795-.226 1.022-.567.227-.397.17-.794-.057-1.19l-1.988-3.12c-.227-.34-.113-.736.227-.907.341-.227.739-.113.91.227l1.987 3.176a2.43 2.43 0 01.057 2.551c-.397.794-1.25 1.248-2.158 1.248z" fill="#04233F"/>
  <path d="M64.785 66.935a.674.674 0 01-.682-.567c-.056-.34.17-.737.512-.794l20.619-4.026c.34-.057.738.17.795.51.057.34-.17.737-.511.794l-20.62 4.026c-.056.057-.113.057-.113.057zM64.785 70.847a.674.674 0 01-.682-.567c-.056-.34.17-.737.512-.794l22.039-4.31c.34-.056.738.17.795.511.057.34-.17.737-.511.794l-22.04 4.31c-.056.056-.113.056-.113.056zM64.785 74.761a.675.675 0 01-.682-.567c-.057-.34.17-.737.568-.794l21.983-4.026c.397-.057.738.17.795.567.057.34-.17.737-.568.794L64.898 74.76h-.113zM64.728 78.843a.675.675 0 01-.681-.567c-.057-.34.17-.737.51-.794l22.097-4.196c.34-.057.738.17.795.51.057.34-.17.738-.511.794l-22.04 4.253h-.17z" fill="#005096"/>
  <path d="M65.467 82.7a.674.674 0 01-.682-.567c-.057-.34.17-.738.511-.794l21.358-4.14c.34-.057.738.17.795.51.057.34-.17.738-.511.794l-21.301 4.14c-.057.057-.114.057-.17.057z" fill="#04233F"/>
  <path d="M59.73 79.354c-1.136 0-2.159-.114-3.181-.284a.707.707 0 01-.569-.794c.057-.397.398-.624.796-.567 2.215.397 4.771.34 7.839-.283.397-.057.738.17.795.567.057.34-.17.737-.568.794-1.875.396-3.579.567-5.112.567z" fill="#005096"/>
  <path d="M45.529 85.08c-1.931 0-3.749-.68-5.112-1.814a.652.652 0 01-.057-.964.655.655 0 01.966-.056c1.079.907 2.612 1.474 4.203 1.474 6.475 0 9.259-3.289 10.338-5.217 1.306-2.438 1.477-5.33.34-7.088-.397-.624-1.135-1.305-2.385-1.248-1.76.114-2.954.964-3.18 2.268-.228 1.418.738 3.346 3.407 4.537.341.17.512.567.341.907-.17.34-.568.51-.909.34-2.442-1.077-4.657-3.345-4.203-6.01.34-1.928 2.045-3.233 4.374-3.403 1.477-.113 2.783.567 3.635 1.871 1.363 2.155 1.25 5.614-.284 8.45-1.193 2.211-4.26 5.954-11.474 5.954z" fill="#005096"/>
</svg>
