<svg width="370" height="321" xmlns="http://www.w3.org/2000/svg">
    <g stroke="#F0F1F8" stroke-width="2" fill="none" fill-rule="evenodd">
        <path d="M184.509 21.582c37.171-.308 73.643-29.047 107.836-14.413 36.062 15.435 59.571 53.018 70.592 90.78 10.842 37.146 2.951 76.712-11.197 112.721-13.466 34.273-35.564 64.767-66.394 84.762-29.722 19.276-65.45 23.608-100.837 23.695-35.467.085-70.255-5.795-101.192-23.204-34.12-19.2-79.053-40.853-82.184-79.988-3.242-40.514 53.852-59.34 67.99-97.429C82.185 83.312 49.264 33.054 77.961 8.95c28.113-23.615 69.889 12.938 106.547 12.633z"/>
        <path d="M184.507 49.705c29.676-.246 58.794-23.149 86.092-11.486 28.791 12.3 47.56 42.251 56.359 72.343 8.655 29.603 2.356 61.135-8.939 89.831-10.751 27.313-28.393 51.614-53.007 67.55-23.729 15.36-52.253 18.813-80.505 18.882-28.316.068-56.089-4.618-80.788-18.492-27.24-15.3-63.113-32.557-65.613-63.744-2.588-32.286 42.994-47.29 54.28-77.643 10.43-28.048-15.853-68.1 7.058-87.309 22.444-18.819 55.796 10.31 85.063 10.068z"/>
        <path d="M184.506 76.975c22.383-.185 44.346-17.429 64.936-8.648 21.716 9.26 35.872 31.811 42.509 54.467 6.529 22.288 1.777 46.028-6.742 67.634-8.109 20.563-21.416 38.86-39.982 50.857-17.898 11.565-39.412 14.164-60.721 14.217-21.358.051-42.307-3.477-60.936-13.923-20.547-11.52-47.605-24.512-49.49-47.992-1.952-24.309 32.429-35.605 40.942-58.458 7.867-21.117-11.958-51.271 5.323-65.734 16.929-14.169 42.085 7.763 64.161 7.58z"/>
        <path d="M184.504 104.296c15.09-.124 29.898-11.708 43.78-5.81 14.641 6.222 24.186 21.371 28.66 36.592 4.402 14.973 1.199 30.92-4.545 45.435-5.467 13.815-14.439 26.106-26.956 34.165-12.067 7.77-26.572 9.516-40.94 9.552-14.399.034-28.523-2.336-41.083-9.354-13.852-7.739-32.095-16.467-33.366-32.24-1.316-16.33 21.864-23.92 27.603-39.272 5.304-14.186-8.062-34.444 3.59-44.16 11.413-9.518 28.373 5.215 43.257 5.092z" fill="#F0F1F8"/>
    </g>
</svg>
