<svg width="119" height="110" fill="none" xmlns="http://www.w3.org/2000/svg">
  <path clip-rule="evenodd" d="M60.176 2.433c10.576-1.55 21.426-.735 31 4.157 10.864 5.55 22.695 12.9 25.972 24.951 3.255 11.972-3.428 24.363-9.672 34.995-5.195 8.845-14.786 12.81-22.37 19.566-8.578 7.642-13.638 21.643-24.93 22.573-11.27.928-18.447-11.961-27.995-18.214-10.464-6.854-27.114-7.855-30.57-20.145-3.475-12.354 8.723-23.247 15.294-34.177 4.943-8.223 10.581-15.486 18.063-21.314C42.584 8.892 50.731 3.817 60.176 2.433z" stroke="#F0F1F8" stroke-width="2"/>
  <path fill-rule="evenodd" clip-rule="evenodd" d="M59.945 20.465c6.96-1.014 14.101-.481 20.402 2.719 7.15 3.631 14.936 8.44 17.092 16.324 2.142 7.832-2.256 15.938-6.365 22.893-3.419 5.787-9.73 8.38-14.722 12.8-5.646 5-8.975 14.16-16.407 14.768-7.417.607-12.14-7.825-18.424-11.916-6.887-4.484-17.845-5.138-20.12-13.179-2.286-8.082 5.742-15.208 10.066-22.358 3.253-5.38 6.964-10.132 11.888-13.944 5.013-3.882 10.374-7.202 16.59-8.107z" fill="#F0F1F8"/>
  <g clip-path="url(#clip0)">
    <path d="M68.768 39.403H51.232c-1.408 0-2.624-1.152-2.624-2.624V26.347c0-1.408 1.152-2.624 2.624-2.624h17.472c1.408 0 2.624 1.152 2.624 2.624v10.432c0 1.408-1.152 2.624-2.56 2.624zM51.232 25.195c-.64 0-1.088.512-1.088 1.088v10.432c0 .64.512 1.088 1.088 1.088h17.472c.64 0 1.088-.512 1.088-1.088V26.347c0-.64-.512-1.088-1.088-1.088H51.232v-.064z" fill="#04233F"/>
    <path d="M64.864 45.739h-9.728c-.96 0-1.792-.768-1.792-1.792V38.57c0-.384.32-.768.768-.768.384 0 .768.32.768.768v5.376c0 .128.128.256.256.256H64.8a.275.275 0 00.256-.256V38.57c0-.384.32-.768.768-.768.384 0 .768.32.768.768v5.376c0 1.024-.768 1.792-1.728 1.792z" fill="#04233F"/>
    <path d="M59.936 51.115a.778.778 0 01-.768-.768v-5.312c0-.384.32-.768.768-.768.384 0 .768.32.768.768v5.312c-.064.448-.384.768-.768.768zM46.88 78.315H32.288a.778.778 0 01-.768-.768v-40.64c0-3.328 2.752-6.08 6.08-6.08h11.84c.384 0 .768.32.768.768 0 .384-.32.768-.768.768H37.6c-2.496 0-4.544 2.048-4.544 4.544v39.936H46.88c.384 0 .768.32.768.768 0 .384-.384.704-.768.704zM87.712 78.315H72.864a.778.778 0 01-.768-.768c0-.384.32-.768.768-.768h14.08V36.907c0-2.496-2.048-4.544-4.544-4.544H70.624a.778.778 0 01-.768-.768c0-.384.32-.768.768-.768H82.4c3.328 0 6.08 2.752 6.08 6.08v40.64a.74.74 0 01-.768.768z" fill="#04233F"/>
    <path d="M68.896 87.722H51.104c-.576 0-1.088-.256-1.472-.704a1.987 1.987 0 01-.448-1.536c.64-3.584 1.856-12.544.576-18.56l-.96 2.112c-.192.384-.64.512-1.024.384L41.44 66.41c-.384-.192-.512-.576-.384-.96l3.008-6.912c1.088-2.496 3.072-4.48 5.568-5.632l5.056-2.24c.32-.128.768-.128 1.088.064.32.192.576.512.576.896.256 2.112 1.984 3.008 3.584 3.008s3.392-.96 3.584-3.008c.064-.384.256-.704.576-.896.32-.192.704-.192 1.088-.064l5.056 2.24c2.496 1.088 4.48 3.136 5.568 5.632l3.008 6.912a.684.684 0 01-.384.96l-6.336 2.944c-.384.192-.832 0-1.024-.384l-.832-2.048c-1.28 6.08 0 14.976.576 18.56.064.576-.064 1.152-.448 1.536-.384.448-.896.704-1.472.704zM49.824 65.386c.704 0 1.344.512 1.472 1.216 1.344 6.336.064 15.488-.576 19.136 0 .192.064.256.064.32.064.064.128.128.32.128h17.792c.192 0 .256-.064.32-.128s.128-.192.064-.32c-.64-3.648-1.92-12.8-.576-19.136.128-.576.512-1.024 1.024-1.152a1.518 1.518 0 011.792.832l.704 1.472 4.992-2.304-2.752-6.272a9.612 9.612 0 00-4.8-4.864l-4.672-2.048c-.512 2.688-2.944 3.968-5.056 3.968s-4.544-1.216-5.056-3.968l-4.672 2.048c-2.176.96-3.904 2.688-4.8 4.864l-2.688 6.208 4.992 2.304.64-1.408c.192-.448.64-.768 1.152-.896h.32z" fill="#005096"/>
  </g>
  <defs>
    <clipPath id="clip0">
      <path fill="#fff" transform="translate(28 23.723)" d="M0 0h64v64H0z"/>
    </clipPath>
  </defs>
</svg>
