<?xml version="1.0" encoding="utf-8"?>
<svg xmlns="http://www.w3.org/2000/svg" width="280" height="120">
  <g fill="#0B1014">
    <path d="M152.831 15.611c0 1.25-.939 2.379-2.418 2.379-1.029 0-1.64-.27-2.569-.9l.44-.649c.869.58 1.339.79 2.049.79.979 0 1.609-.709 1.609-1.579 0-.879-.55-1.469-1.52-1.469-.569 0-1.039.2-1.39.54l-.77-.08.3-3.608h3.948v.75h-3.198l-.17 2.109c.33-.26.8-.45 1.439-.45 1.361-.002 2.25.908 2.25 2.167zM159.041 15.511v.729h-1.02v1.589h-.859V16.24h-3.448v-.799l2.818-4.408h.979l-2.858 4.478h2.509v-1.549h.859v1.549h1.02zM160.883 17.83h-1.02v-1.08h1.02v1.08zM166.851 15.611c0 1.25-.939 2.379-2.418 2.379-1.029 0-1.64-.27-2.569-.9l.44-.649c.869.58 1.339.79 2.049.79.979 0 1.609-.709 1.609-1.579 0-.879-.55-1.469-1.52-1.469-.569 0-1.039.2-1.39.54l-.77-.08.3-3.608h3.948v.75h-3.198l-.17 2.109c.33-.26.8-.45 1.439-.45 1.361-.002 2.25.908 2.25 2.167zM174.83 14.401v3.428h-.859v-3.188c0-.709-.311-1.139-.979-1.139-.689 0-1.13.52-1.13 1.239v3.088h-.859v-3.188c0-.709-.31-1.139-.979-1.139-.64 0-1.119.47-1.119 1.239v3.088h-.859v-4.917h.81v.59c.289-.47.749-.729 1.409-.729.699 0 1.179.32 1.419.799.3-.47.779-.799 1.509-.799 1.097-.001 1.637.699 1.637 1.628zM182.95 14.401v3.428h-.859v-3.188c0-.709-.311-1.139-.979-1.139-.689 0-1.13.52-1.13 1.239v3.088h-.859v-3.188c0-.709-.31-1.139-.979-1.139-.64 0-1.119.47-1.119 1.239v3.088h-.859v-4.917h.81v.59c.289-.47.749-.729 1.409-.729.699 0 1.179.32 1.419.799.3-.47.779-.799 1.509-.799 1.097-.001 1.637.699 1.637 1.628z"/>
  </g>
  <g fill="#0B1014">
    <path d="M250.352 66.042c0 1.56-.909 2.739-2.089 3.838l-.49.46h-1.169v-.01l1.079-.99c.7-.639 1.26-1.299 1.569-1.959-.359.381-.899.61-1.599.61-1.399 0-2.27-1.06-2.27-2.278 0-1.199.899-2.319 2.459-2.319 1.61 0 2.51 1.139 2.51 2.648zm-.91-.339c0-.881-.62-1.561-1.6-1.561s-1.569.68-1.569 1.561c0 .869.56 1.549 1.539 1.549 1.01 0 1.63-.68 1.63-1.549zM252.303 70.34h-1.02v-1.08h1.02v1.08zM258.262 68.171c0 1.2-.89 2.319-2.459 2.319-1.599 0-2.509-1.14-2.509-2.648 0-1.56.91-2.739 2.089-3.838l.49-.461h1.179v.011l-1.079.989c-.699.64-1.26 1.299-1.569 1.959.36-.38.89-.609 1.589-.609 1.409 0 2.269 1.058 2.269 2.278zm-.89.011c0-.87-.56-1.55-1.529-1.55-1.02 0-1.639.68-1.639 1.55 0 .879.619 1.559 1.599 1.559.989-.001 1.569-.68 1.569-1.559zM266.12 66.912v3.428h-.859v-3.188c0-.71-.311-1.14-.979-1.14-.689 0-1.13.52-1.13 1.24v3.088h-.859v-3.188c0-.71-.31-1.14-.979-1.14-.64 0-1.119.471-1.119 1.24v3.088h-.859v-4.918h.81v.59c.289-.469.749-.729 1.409-.729.699 0 1.179.319 1.419.799.3-.47.779-.799 1.509-.799 1.097 0 1.637.699 1.637 1.629zM274.24 66.912v3.428h-.859v-3.188c0-.71-.311-1.14-.979-1.14-.689 0-1.13.52-1.13 1.24v3.088h-.859v-3.188c0-.71-.31-1.14-.979-1.14-.64 0-1.119.471-1.119 1.24v3.088h-.859v-4.918h.81v.59c.289-.469.749-.729 1.409-.729.699 0 1.179.319 1.419.799.3-.47.779-.799 1.509-.799 1.097 0 1.637.699 1.637 1.629z"/>
  </g>
  <g fill="#0B1014">
    <path d="M6.952 32.16v.75H2.094v-.33c0-1.5.939-2.079 2.039-2.759.939-.58 1.909-.91 1.909-1.919 0-.79-.62-1.189-1.319-1.189-.809 0-1.299.39-1.969 1.22l-.649-.46c.66-.939 1.439-1.519 2.599-1.519 1.369 0 2.229.839 2.229 1.919 0 1.439-1.159 1.879-2.279 2.568-.87.53-1.549.879-1.659 1.719h3.957zM12.751 30.691c0 1.25-.939 2.379-2.418 2.379-1.03 0-1.64-.27-2.569-.9l.44-.649c.869.58 1.339.79 2.049.79.979 0 1.609-.709 1.609-1.579 0-.879-.55-1.469-1.52-1.469-.57 0-1.04.2-1.389.54l-.77-.08.3-3.608h3.948v.75H9.233l-.17 2.109c.33-.26.799-.45 1.439-.45 1.36-.002 2.249.908 2.249 2.167zM14.813 32.91h-1.02v-1.08h1.02v1.08zM20.882 30.591v.729h-1.02v1.589h-.859V31.32h-3.448v-.799l2.818-4.408h.979l-2.858 4.478h2.509v-1.549h.859v1.549h1.02zM28.521 29.481v3.428h-.859v-3.188c0-.709-.311-1.139-.979-1.139-.689 0-1.13.52-1.13 1.239v3.088h-.859v-3.188c0-.709-.31-1.139-.979-1.139-.64 0-1.119.47-1.119 1.239v3.088h-.859v-4.917h.81v.59c.289-.47.749-.729 1.409-.729.699 0 1.179.32 1.419.799.3-.47.779-.799 1.509-.799 1.096 0 1.637.699 1.637 1.628zM36.641 29.481v3.428h-.859v-3.188c0-.709-.311-1.139-.979-1.139-.689 0-1.13.52-1.13 1.239v3.088h-.859v-3.188c0-.709-.31-1.139-.979-1.139-.64 0-1.119.47-1.119 1.239v3.088h-.859v-4.917h.81v.59c.289-.47.749-.729 1.409-.729.699 0 1.179.32 1.419.799.3-.47.779-.799 1.509-.799 1.097 0 1.637.699 1.637 1.628z"/>
  </g>
  <path fill="none" stroke="#0B1014" stroke-width=".6" stroke-miterlimit="10" d="M209.507 97.595c-.832-.541-.968-1.312-.993-2.083.066-1.172.75-2.121 1.456-3.756.366-1.092 6.862-13.402 7.403-13.355.542.045.728.87.788 1.445.109 1.031 0 1.826-.466 3.152-.463 1.129-.989 2.218-1.524 3.285-.733 1.461-4.183 8.664-5.594 10.873-.398.481-.705.605-1.07.439zM184.369 93.561c-1.003 1.605-7.032 12.381-9.726 15.031-.963.854-2.107 1.563-3.278 2.113-2.005.945-4.187 1.26-6.389 1.094-1.308-.098-109.875-29.178-112.387-29.881-1.15-.32-2.312-.649-3.405-1.117-1.416-.607-2.449-1.646-2.858-3.191-.754-2.85-3.886-17.557-4.205-19.623-.148-.964-.322-1.948-.009-2.922.022-.069.086-.126.183-.263M198.327 49.154c.085 2.567.093 5.137.144 7.706.021 1.119-.119 7.981-.25 10.293-.063 1.132-.1 2.271-.256 3.391-.105.753-.249 1.511-.612 2.214-.02.064-.481.852-.534.848"/>
  <path fill="none" stroke="#0B1014" stroke-width=".6" stroke-miterlimit="10" d="M161.145 88.297c-1.887-.385-115.511-28.234-116.955-29.033-.942-.521-1.749-1.218-2.127-2.23-.177-.476-.145-1.109 0-1.612.417-1.458 1.481-2.451 2.61-3.397 1.18-.991 16.441-14.386 18.099-15.827 1.144-.996 11.04-9.641 11.718-10.261 1.188-1.089 2.619-1.738 4.117-2.239 1.865-.624 3.809-.83 5.759-.761 2.632.093 104.584 20.526 106.632 20.961 1.477.314 2.939.699 4.267 1.46 1.165.668 2.053 1.272 2.75 2.5.498 1.128.337 2.062-.154 2.876-.854 1.418-20.703 31.073-22.202 33.28-1.438 2.117-3.449 3.385-5.896 4.059-1.614.444-3.23.785-4.914.701-1.568-.04-2.485-.229-3.704-.477zM54.616 73.061c-.001 1.721-1.133 2.603-2.469 2.314-1.66-.355-2.607-1.516-3.179-2.969a8.772 8.772 0 01-.606-2.867c-.094-2.652 2.16-3 3.602-2.121 1.196.73 1.688 1.825 2.156 3.104.332.91.499 1.787.496 2.539zM209.736 97.649c-.198.14-.912-.054-1.257-.138-3.018-.732-16.36-4.086-20.044-4.898-1.392-.307-2.071-1.342-2.138-2.869-.176-1.963.975-3.248 1.823-4.709.78-1.345 1.673-2.623 2.499-3.943 1.455-2.318 2.896-4.646 4.343-6.971.302-.484.651-.67 1.282-.521 4.076.958 18.04 4.087 20.936 4.737.034.008.08.021.157.09"/>
  <path fill="none" stroke="#0B1014" stroke-width=".6" stroke-miterlimit="10" d="M188.09 92.479c-.845 1.308-2.775 1.735-4.033.846-.701-.637-.991-1.295-1.144-2.518-.402-5.111 8.085-16.103 9.775-18.716.413-.637 1.029-.832 1.843-.708 1.268.193 1.827 1.311 2.306 2.338M89.167 11.969l147.618 29.147"/>
  <path fill="none" stroke="#0B1014" stroke-width=".45" d="M236.868 40.53a1.131 1.131 0 111.6 1.6 1.131 1.131 0 01-1.6-1.6M87.285 10.905a1.131 1.131 0 111.6 1.6 1.131 1.131 0 01-1.6-1.6"/>
  <path fill="none" stroke="#0B1014" stroke-width=".6" stroke-miterlimit="10" d="M64.438 18.902L23.313 55.278M64.317 17.53a1.131 1.131 0 111.6 1.6 1.131 1.131 0 01-1.6-1.6M21.743 55.133a1.131 1.131 0 111.6 1.6 1.131 1.131 0 01-1.6-1.6M236.965 79.74l.703-28.362"/>
  <path fill="none" stroke="#0B1014" stroke-width=".45" d="M236.868 49.655a1.131 1.131 0 111.6 1.6 1.131 1.131 0 01-1.6-1.6M236.165 80a1.131 1.131 0 111.6 1.6 1.131 1.131 0 01-1.6-1.6"/>
</svg>
