<?xml version="1.0" encoding="UTF-8"?> <svg xmlns="http://www.w3.org/2000/svg" width="505" height="504" viewBox="0 0 505 504" fill="none"><path fill-rule="evenodd" clip-rule="evenodd" d="M252.168 425.992C348.261 425.992 426.16 348.093 426.16 252C426.16 155.907 348.261 78.0079 252.168 78.0079C156.075 78.0079 78.1759 155.907 78.1759 252C78.1759 348.093 156.075 425.992 252.168 425.992ZM252.168 504C391.344 504 504.168 391.176 504.168 252C504.168 112.824 391.344 0 252.168 0C112.992 0 0.167969 112.824 0.167969 252C0.167969 391.176 112.992 504 252.168 504Z" fill="#1E2C3C"></path><path fill-rule="evenodd" clip-rule="evenodd" d="M252.166 283.595C269.616 283.595 283.762 269.449 283.762 251.999C283.762 234.55 269.616 220.404 252.166 220.404C234.716 220.404 220.57 234.55 220.57 251.999C220.57 269.449 234.716 283.595 252.166 283.595ZM252.166 361.603C312.699 361.603 361.77 312.532 361.77 251.999C361.77 191.467 312.699 142.396 252.166 142.396C191.634 142.396 142.562 191.467 142.562 251.999C142.562 312.532 191.634 361.603 252.166 361.603Z" fill="#1E2C3C"></path></svg> 