<?xml version="1.0" encoding="utf-8"?>
<!-- Generator: Adobe Illustrator 26.5.0, SVG Export Plug-In . SVG Version: 6.00 Build 0)  -->
<svg version="1.1" id="Layer_1" xmlns="http://www.w3.org/2000/svg" xmlns:xlink="http://www.w3.org/1999/xlink" x="0px" y="0px"
	 viewBox="0 0 198 151" style="enable-background:new 0 0 198 151;" xml:space="preserve">
<style type="text/css">
	.st0{display:none;fill:#FFFFFF;}
	.st1{fill:#FFFFFF;}
	.st2{fill-rule:evenodd;clip-rule:evenodd;fill:#000091;}
	.st3{fill:#E1000F;}
	.st4{fill:#808080;}
	.st5{fill:#C4C4C4;filter:url(#Adobe_OpacityMaskFilter);}
	.st6{mask:url(#mask0_00000171684123801909883190000011808315457449747328_);}
	.st7{fill:#1E1E1E;}
	.st8{fill-rule:evenodd;clip-rule:evenodd;}
	.st9{fill:#C4C4C4;filter:url(#Adobe_OpacityMaskFilter_00000152958695604428649580000016056003056960605859_);}
	.st10{mask:url(#mask1_00000131335489935457979050000012340637431111137179_);}
</style>
<rect class="st0" width="198" height="151"/>
<rect x="20" y="20" class="st1" width="55" height="20"/>
<path class="st2" d="M42.7,37.6c0.2-0.2,0.4-0.4,0.6-0.7c0.4-0.5,0.8-0.9,1.3-1.3c0.1-0.1,0.3-0.2,0.4-0.3c0,0,0,0,0-0.1
	c0,0,0-0.1,0-0.1c-0.1,0-0.2,0.1-0.2,0.2c-0.1,0.1-0.2,0.1-0.2,0.2c0,0-0.1,0,0-0.1l0.4-0.3c0,0,0,0,0,0c0,0,0,0,0-0.1
	c-0.5-0.1-0.9,0.3-1.2,0.6l0,0c-0.1,0-0.1,0-0.1,0c0,0,0,0,0,0c-0.3,0.1-0.6,0.3-0.8,0.5h0c-0.2,0.2-0.5,0.3-0.7,0.4v-0.1
	c-0.1,0-0.2,0.1-0.3,0.1c-0.1,0.1-0.3,0.1-0.4,0.1c-0.3,0.1-0.5,0-0.7,0h0h0l0,0h0h0l0,0c-0.1,0-0.2,0-0.2,0
	c-0.5,0.1-0.9,0.1-1.4,0.2l0,0l0,0l0,0c-0.2,0.1-0.5,0.2-0.7,0.3c0,0,0,0,0,0c0,0,0,0-0.1,0.1c-0.1,0.1-0.2,0.2-0.3,0.2
	c-0.2,0.1-0.3,0.2-0.4,0.3c-0.1,0.1-0.1,0.1-0.2,0.2c0,0,0,0-0.1,0c-0.1,0.1-0.1,0.1-0.2,0.2l0,0l0,0v0h0l0,0l0,0v0
	c-0.1,0.1-0.3,0.3-0.4,0.4c0,0-0.1,0-0.1,0c0,0,0,0,0,0c0-0.1,0.1-0.1,0.1-0.2c0-0.1,0.1-0.1,0.1-0.2c0.1-0.1,0.1-0.2,0.2-0.2
	c0,0,0,0,0,0c0,0,0,0-0.1,0c0.2-0.2,0.4-0.3,0.6-0.5c0,0-0.1,0,0,0c0,0,0,0,0-0.1c0,0,0,0,0,0c0,0,0,0,0,0c0,0,0,0,0,0l0,0
	c-0.1,0-0.1,0.1-0.2,0.1c0,0-0.1,0.1-0.1,0.1l0,0c-0.1,0.1-0.1,0.2-0.2,0.2c0,0,0,0-0.1,0c0,0,0,0,0,0l0,0l0,0l0,0l0,0l0,0l0,0l0,0
	c0,0,0,0,0,0l0,0l0,0l0,0c0,0,0,0,0-0.1l0,0l0,0l0,0l0,0l0,0l0,0l0,0h0l0,0l0,0c0,0,0,0,0,0c0,0,0,0,0,0c0.1-0.1,0.2-0.2,0.3-0.2h0
	c0.1-0.1,0.2-0.1,0.3-0.2l0,0l0,0c0,0,0.1-0.1,0.1-0.1c0,0,0,0,0,0l0,0c-0.2,0.1-0.4,0.2-0.6,0.3c0,0,0,0-0.1,0c0,0-0.1,0-0.1,0
	c0,0,0,0,0,0c0,0,0.1-0.1,0.1-0.1c0,0,0.1,0,0.1-0.1c0,0,0.1,0,0.1,0c0.8-0.6,1.7-0.7,2.6-0.9c0.6-0.1,1.1-0.2,1.7-0.4l0.3-0.2
	c0.1,0,0.2-0.1,0.3-0.2c0.1-0.1,0.2-0.1,0.3-0.2c0.3-0.2,0.5-0.5,0.6-0.9c0,0,0-0.1,0-0.1c-0.5,0.5-1,0.9-1.7,1.2
	c-0.6,0.3-1.2,0.3-1.8,0.4c-0.2,0-0.5,0-0.7,0.1c0-0.1,0.1-0.1,0.2-0.1c0-0.1,0-0.1,0.1-0.2c0,0,0,0,0,0h0.1c0,0,0,0,0,0
	c0,0,0,0,0,0c0.1,0,0.2,0,0.2,0c-0.1-0.1-0.1,0-0.2,0c-0.1,0-0.2,0.1-0.3,0c0,0,0-0.1,0.1-0.1c0,0,0-0.1,0.1-0.1h0.2
	c0-0.1,0-0.1,0.1-0.2c0.3-0.2,0.7-0.4,1-0.5c0.2-0.1,0.4-0.2,0.6-0.4c0,0-0.1,0-0.1,0c-0.1,0-0.1,0.1-0.2,0c0,0,0,0,0-0.1
	c0,0,0-0.1,0-0.1c0.2-0.1,0.5-0.2,0.7-0.3c0.2-0.1,0.3-0.2,0.5-0.2c-0.1,0-0.1,0-0.1,0c-0.1,0-0.2,0-0.3,0c0,0,0,0,0.1,0
	c0,0,0.1-0.1,0.2-0.1v-0.1c0,0,0,0,0.1,0c0,0-0.1,0-0.1,0c0,0,0.1,0,0.1-0.1c0,0,0.1,0,0.1-0.1c0,0-0.1,0-0.1,0
	c0.1-0.2,0.3-0.2,0.5-0.2c0,0-0.1,0-0.1,0c0,0-0.1,0-0.1,0s0,0,0.1,0h-0.1c-0.1,0,0-0.1,0-0.1l0,0c0,0,0,0,0,0
	c0.2-0.2,0.2-0.4,0.3-0.6c0-0.1,0.1-0.2,0.1-0.3c0,0-0.1,0-0.1,0c-0.4,0.4-0.9,0.6-1.5,0.7l0,0h-0.2c-0.2,0.1-0.4,0.1-0.6,0
	c-0.1,0-0.2-0.1-0.2-0.2c0,0-0.1-0.1-0.2-0.1c-0.3-0.2-0.6-0.3-0.9-0.5c-0.9-0.3-1.9-0.4-2.9-0.4c0.3-0.1,0.6-0.2,0.9-0.3
	c0.2,0,0.3-0.1,0.5-0.1c0.1,0,0.2-0.1,0.3-0.1c0.5-0.2,1.1-0.3,1.6-0.3c-0.1,0-0.2,0-0.3,0c0,0-0.1,0-0.1,0c-0.4,0-0.9,0.1-1.3,0.2
	c-0.1,0-0.2,0-0.3,0.1c-0.2,0-0.4,0.1-0.5,0.2c-0.2,0.1-0.4,0.1-0.5,0.2c-0.1,0-0.2,0.1-0.2,0.1c-0.1,0.1-0.2,0.2-0.4,0.1V31
	c0.4-0.5,0.8-0.9,1.4-0.9c0.6-0.1,1.1,0,1.7,0h0c0.1,0,0.2,0,0.3,0c0.5,0.1,1,0.1,1.4,0.3c0.1,0,0.2,0.1,0.2,0.2
	c0,0.1,0.1,0.1,0.2,0.2c0.1,0,0.2,0,0.3,0c0.1,0,0.3,0,0.4,0.1c0,0,0-0.1,0-0.1c0-0.1,0-0.1,0-0.2c0.1-0.1,0.2-0.1,0.3,0
	c0.1,0,0.1,0,0.2,0c0.2-0.1,0-0.3-0.2-0.5c-0.1-0.1-0.2-0.2-0.2-0.3c0,0,0-0.1,0-0.1c0.1,0.1,0.2,0.2,0.3,0.2
	c0.2,0.2,0.4,0.4,0.6,0.5c0.2,0.1,0.6,0.2,0.6,0c-0.1-0.3-0.4-0.5-0.6-0.8c-0.1-0.1-0.2-0.2-0.3-0.3v-0.2c-0.1,0-0.1,0-0.1,0
	c0,0,0,0,0,0V29c-0.1,0-0.1-0.1-0.1-0.2c0,0,0-0.1-0.1-0.1c-0.1-0.1-0.1-0.2-0.1-0.4c0-0.1,0-0.2,0-0.3c-0.1-0.2-0.1-0.4-0.2-0.6
	c0-0.3-0.1-0.5-0.1-0.7h0v0l0,0l0,0c-0.1-0.4-0.1-0.7-0.2-1.1c-0.1-0.6,0.2-1,0.5-1.5c0.1-0.1,0.2-0.3,0.2-0.4
	c0.3-0.5,0.6-0.9,1.1-1.2c0.1-0.5,0.4-0.8,0.7-1.2l0,0c0.3-0.4,0.8-0.6,1.2-0.8c0.3-0.1,0.7-0.3,1-0.4H20v20h18.4
	c0.5-0.4,1-0.6,1.6-0.9c0.3-0.1,0.5-0.2,0.8-0.4c0.1,0,0.1-0.1,0.2-0.1l0,0l0,0l0,0C41.5,38.4,42.4,38,42.7,37.6z M36.7,34.9
	c0-0.1,0.2-0.2,0.3-0.2c0.1,0,0.1,0,0.2-0.1l0,0l0,0l0,0c0.1,0,0.2-0.1,0.2-0.1c0,0.1,0.1,0.1,0.2,0.1c0,0,0.1,0,0.1,0.1
	c-0.1,0.1-0.3,0.1-0.5,0.2c-0.1,0-0.2,0-0.3,0.1c0,0,0,0-0.1,0C36.8,34.9,36.7,35,36.7,34.9z M32.3,32.1c-0.3,0.7-0.7,1.3-1.2,1.9
	c0,0,0,0.1,0,0.1c0.9-1,1.7-1.9,2.9-2.6c0,0,0,0,0,0c0,0-0.1,0.1,0,0.1c0.4-0.1,0.6-0.4,0.7-0.7c0-0.1,0.1-0.2,0.1-0.2
	c0.2-0.3,0.4-0.5,0.7-0.7c0.2-0.1,0.4-0.3,0.5-0.4c0,0,0,0.1,0,0.1c0,0,0.1,0,0.1,0c0.1,0,0.1-0.1,0.2-0.1c0.1,0,0.2-0.1,0.2-0.1
	c-0.3-0.1-0.7-0.1-1,0c-0.8,0.4-1.5,1-2.1,1.7C33.2,31.4,32.8,31.8,32.3,32.1z M34.2,31.8c0,0.1-0.1,0.1-0.2,0.2c0,0-0.1,0-0.1,0
	c0-0.2,0.1-0.3,0.3-0.3c0,0,0,0,0,0.1C34.3,31.6,34.2,31.7,34.2,31.8C34.2,31.7,34.2,31.7,34.2,31.8z M36,37.4
	C36,37.4,36,37.4,36,37.4c0-0.1,0-0.1,0-0.2c0-0.1-0.2-0.1-0.2,0c0,0-0.1,0.1-0.1,0.1c0,0.1-0.1,0.1-0.2,0.2c0,0-0.1,0.1-0.1,0.1
	c-0.1,0.1-0.1,0.1-0.2,0.1c-0.1,0.1,0.1,0.1,0.2,0c0,0,0.1-0.1,0.1-0.1c0,0,0,0,0.1,0C35.8,37.6,35.9,37.5,36,37.4z M35.3,37
	L35.3,37c-0.2,0.1-0.3,0.2-0.4,0.3c-0.1,0.1-0.2,0.1-0.4,0.2c0,0-0.1,0-0.1,0.1c0,0,0,0,0,0c0,0,0,0-0.1,0c-0.1,0.1-0.3,0.2-0.4,0.3
	c0,0,0,0-0.1,0.1c0,0,0,0-0.1,0.1l0,0c0,0,0,0,0,0l0,0c0,0-0.1,0.1-0.1,0.1c0,0,0,0-0.1,0.1c0,0-0.1,0-0.1,0v0l0,0c0,0,0,0-0.1,0
	c0,0,0,0-0.1,0l0,0c0,0,0,0,0,0c0,0,0,0,0,0c0,0-0.1,0.1-0.1,0.1c-0.1,0.1-0.2,0.1-0.2,0.2l0,0l0,0c0,0,0,0,0,0l0,0l0,0l0,0l0,0
	c0,0,0,0,0,0l0,0c0,0,0,0,0,0l0,0l0,0c0,0,0,0,0-0.1l0,0l0,0l0,0c0,0,0.1-0.1,0.1-0.1l0,0c0,0,0,0,0,0l0.1-0.1c0,0,0,0,0,0l0,0
	c0-0.1,0.1-0.1,0.1-0.2l0,0l0,0c0,0,0,0,0,0c0,0,0-0.1,0.1-0.1c0,0,0,0,0-0.1l0,0l0,0c0,0,0,0,0,0c0,0,0,0,0,0c0,0,0-0.1,0-0.1l0,0
	l0,0c0,0,0,0,0,0c0,0,0,0,0,0c0,0,0,0,0,0l0,0v0c0,0,0,0,0,0c0,0,0,0,0,0c0-0.1,0.1-0.1,0.1-0.2c0,0,0,0,0,0l0,0c0,0,0,0,0,0
	c0,0-0.1,0-0.1,0.1c0,0,0,0-0.1,0.1c0,0-0.1,0-0.1-0.1c0,0,0.1-0.1,0.1-0.1c0.1-0.1,0.1-0.1,0.2-0.2l0,0c0,0,0.1-0.1,0.1-0.1
	c0,0,0,0,0,0l0,0c0,0,0.1-0.1,0.1-0.1l0,0c0,0,0,0,0,0c0.2-0.2,0.5-0.3,0.9-0.4c0.2-0.1,0.4-0.1,0.6-0.2c0.1,0,0.2,0,0.3,0
	c0.1,0,0.2,0,0.3,0c0.1,0,0.2,0,0.3,0.1c-0.3,0.1-0.5,0.3-0.8,0.5C35.5,36.9,35.4,36.9,35.3,37L35.3,37z M36,34.3h0.3
	c0,0-0.1,0-0.1,0.1c0,0,0,0,0,0c0.1,0.1,0.3,0.1,0.5,0c0.1-0.1,0.2-0.1,0.4-0.1c0,0,0-0.1,0-0.1c0.1,0,0.2,0,0.3,0
	c0.9-0.2,1.8-0.4,2.6-0.8c-0.8-0.6-1.9-0.9-2.9-1.2l0,0l0,0c-0.2,0-0.3-0.1-0.5-0.1c0,0,0.1,0,0.1,0c0.1,0,0.2,0.1,0.2,0
	c-0.1-0.1-0.2-0.1-0.3-0.1c-0.1,0-0.2,0-0.3-0.1c0,0,0,0,0,0c0,0,0.1,0,0.1,0c-0.2-0.1-0.4-0.1-0.6-0.2l0,0c-0.1,0-0.2,0-0.3-0.1
	c0.2,0,0.3-0.2,0.3-0.4c0,0-0.1,0-0.1,0c-0.5,0.2-0.8,0.6-0.9,1.1c0.2,0.1,0.4,0.1,0.5,0.1c0.1,0,0.2,0,0.3,0
	c-0.1,0.1-0.2,0.1-0.3,0.1c0,0-0.1,0-0.1,0c-0.1,0-0.2,0.1-0.2,0.2c0,0,0.1,0,0.1,0.1c-0.1,0-0.2,0.1-0.2,0.1
	c0.1,0.1,0.2,0.1,0.3,0.1c0,0,0.1,0,0.1,0c0,0.1,0,0.1,0.1,0.1l0,0c0,0,0,0,0,0c-0.2,0.1-0.3,0.2-0.4,0.3c0,0.1-0.1,0.2-0.2,0.3l0,0
	c-0.1,0-0.1,0.1-0.2,0.2v0.1c-0.1,0.1-0.3,0.2-0.4,0.3l0,0c-0.3,0.2-0.5,0.4-0.7,0.7c0,0,0,0,0,0.1c0,0.1-0.1,0.1-0.1,0.1
	c-0.1,0-0.1,0.1-0.1,0.1c0,0,0,0.1,0,0.1c0.2-0.1,0.4-0.2,0.6-0.3c0.2-0.1,0.4-0.2,0.6-0.3c0.2,0,0.3-0.1,0.4-0.2
	c0.1-0.1,0.2-0.1,0.4-0.2c0.1,0,0.2,0,0.3-0.1l0,0l0,0C35.7,34.2,35.8,34.2,36,34.3C35.9,34.2,35.9,34.3,36,34.3z M37.7,37.6
	C37.7,37.6,37.7,37.6,37.7,37.6L37.7,37.6c0.1-0.1,0.1-0.1,0.2-0.2c0,0,0,0,0,0c0,0,0,0,0,0C37.8,37.5,37.8,37.5,37.7,37.6z
	 M45.1,35.1L45.1,35.1C45.1,35.2,45.1,35.2,45.1,35.1z"/>
<path class="st3" d="M75,20H53.5c0.1,0,0.1,0.1,0.2,0.1c0.2,0.1,0.4,0.2,0.5,0.3c0.3,0.1,0.5,0.3,0.7,0.6c0.1,0.1,0.2,0.3,0.1,0.5
	C55,21.7,55,22,54.8,22c-0.2,0.1-0.5,0.1-0.8,0.1c-0.2,0-0.3,0-0.5-0.1c0.6,0.2,1.1,0.5,1.5,1c0,0.1,0.2,0.1,0.3,0.1
	c0,0,0,0.1,0,0.1c-0.1,0.1-0.2,0.1-0.1,0.2h0.1c0.2-0.1,0.2-0.5,0.4-0.3c0.2,0.1,0.3,0.4,0.2,0.6c-0.1,0.1-0.3,0.3-0.5,0.4
	c0,0.1,0,0.2,0,0.3c0.1,0.1,0.2,0.3,0.2,0.5c0.1,0.3,0.2,0.6,0.3,0.8c0.2,0.6,0.3,1.1,0.3,1.7c0,0.3-0.2,0.6,0,0.9
	c0.1,0.3,0.3,0.5,0.4,0.8c0.2,0.2,0.3,0.4,0.4,0.6c0.2,0.4,0.6,0.8,0.5,1.2c-0.1,0.3-0.5,0.2-0.8,0.4c-0.2,0.2,0,0.5,0.1,0.7
	c0.2,0.3-0.2,0.6-0.5,0.7c0.1,0.1,0.2,0.1,0.3,0.2c0,0.2,0.2,0.3,0.1,0.5c-0.2,0.2-0.6,0.3-0.4,0.7c0.2,0.3,0.1,0.6,0,0.8
	c-0.1,0.3-0.4,0.5-0.7,0.6c-0.2,0.1-0.5,0.1-0.7,0c-0.1,0-0.1-0.1-0.2-0.1c-0.6-0.1-1.3-0.3-1.9-0.3c-0.2,0-0.4,0.1-0.5,0.2
	c-0.2,0.1-0.3,0.3-0.5,0.4l0,0c0,0-0.1,0.1-0.1,0.1c0,0,0,0,0,0.1c0,0,0,0,0,0c-0.1,0.1-0.2,0.3-0.3,0.4c0,0,0,0,0,0c0,0,0,0,0,0.1
	c-0.1,0.2-0.2,0.5-0.3,0.7c-0.3,0.9-0.1,1.6,0,1.8c0.1,0.1,1.2,0.4,2.1,0.8c0.3,0.1,0.6,0.3,0.9,0.5H75V20z"/>
<path class="st4" d="M54.8,27.3c0.2,0,0.4,0,0.4,0.1c-0.1,0.3-0.5,0.4-0.8,0.7h-0.1c-0.1,0.1-0.1,0.3-0.2,0.3c-0.1,0-0.2,0-0.3,0
	c0.2,0.2,0.3,0.3,0.6,0.2c0.1,0,0.1,0.1,0.1,0.2c0,0,0.1,0,0.1,0c0,0,0.1,0,0.1,0v0.2c-0.1,0.2-0.3,0.1-0.5,0.1
	c0.3,0.1,0.6,0.1,0.9,0c0.2-0.1,0-0.5,0.2-0.6c-0.1,0,0-0.1-0.1-0.1c0.1-0.1,0.2-0.2,0.2-0.2c0.1,0,0.2,0,0.2-0.1
	c0-0.1-0.2-0.1-0.1-0.2c0.2-0.2,0.4-0.4,0.3-0.6c0-0.1-0.3-0.1-0.5-0.2c-0.2-0.1-0.4,0-0.6,0c-0.2,0-0.4,0.1-0.6,0.2
	c-0.3,0.1-0.5,0.2-0.7,0.4c0.3-0.1,0.5-0.2,0.8-0.2C54.3,27.3,54.5,27.2,54.8,27.3z"/>
<defs>
	<filter id="Adobe_OpacityMaskFilter" filterUnits="userSpaceOnUse">
		<feColorMatrix  type="matrix" values="1 0 0 0 0  0 1 0 0 0  0 0 1 0 0  0 0 0 1 0"/>
	</filter>
</defs>
<mask maskUnits="userSpaceOnUse" id="mask0_00000171684123801909883190000011808315457449747328_">
	<rect x="18" y="20" class="st5" width="57" height="20"/>
</mask>
<g class="st6">
</g>
<path class="st7" d="M20.1,65h2.8V55l3.1,5.2h2l3.1-5.2v10H34V51h-3.5L27,56.9L23.6,51h-3.5V65z M38.2,65H41V51h-2.8V65z M45.2,65
	h2.8V54.9L54.3,65H58V51h-2.8v10.1L48.9,51h-3.6V65z M62.2,65H65V51h-2.8V65z M68,63.1c1.2,1.5,2.8,2.3,5.2,2.3
	c2.6,0,4.6-1.6,4.7-4.2c0-4.8-6.4-4.1-6.4-6.6c0-0.8,0.7-1.5,1.7-1.5c1.1,0,2,0.7,2.8,1.8L78,53c-1.2-1.4-2.8-2.4-4.9-2.4
	c-2.7,0-4.5,1.8-4.5,4.1c0,4.7,6.4,4,6.4,6.6c0,1-0.7,1.6-1.8,1.6c-1.1,0-2.3-0.6-3.1-1.7L68,63.1z M79.6,53.6h4.3V65h2.8V53.6H91
	V51H79.6V53.6z M96.7,49.8h2.6L97,47.1h-2.9L96.7,49.8z M93.8,65h8.2v-2.4h-5.3V59h4.5v-2.4h-4.5v-3.3h5.3V51h-8.2V65z M105.6,65
	h2.8v-5.7h1.5l3.7,5.7h3.3l-4.4-6.2c1.4-0.7,2.3-1.9,2.3-3.6c0-2.6-1.9-4.2-5-4.2h-4.3V65z M110,53.4c1.2,0,1.9,0.7,1.9,1.8
	c0,1.1-0.7,1.8-1.9,1.8h-1.6v-3.6H110z M119.1,65h8.2v-2.4h-5.3V59h4.5v-2.4h-4.5v-3.3h5.3V51h-8.2V65z M20.1,86h5.5
	c4.4,0,7.4-3.2,7.4-7s-3-7-7.4-7h-5.5V86z M25.6,74.6c2.6,0,4.5,1.9,4.5,4.4c0,2.5-1.9,4.4-4.5,4.4h-2.7v-8.8H25.6z M36,86h8.2v-2.4
	h-5.3V80h4.5v-2.4h-4.5v-3.3h5.3V72H36V86z M53.3,86h8.2v-2.6h-5.3V72h-2.8V86z M63.5,77.8l2.3-5.8h-2.9l-1.8,5.8H63.5z M68.3,86
	h2.8V72h-2.8V86z M75.4,86h2.8V75.9L84.5,86h3.6V72h-2.8v10.1L79,72h-3.6V86z M90.9,74.6h4.3V86h2.8V74.6h4.3V72H90.9V74.6z
	 M110.5,70.8l2.6-2.7h-2.9l-2.3,2.7H110.5z M105.2,86h8.2v-2.4H108V80h4.5v-2.4H108v-3.3h5.3V72h-8.2V86z M116.9,86h2.8v-5.7h1.5
	L125,86h3.3l-4.4-6.2c1.4-0.7,2.3-1.9,2.3-3.6c0-2.6-1.9-4.2-5-4.2h-4.3V86z M121.4,74.4c1.2,0,1.9,0.7,1.9,1.8
	c0,1.1-0.7,1.8-1.9,1.8h-1.6v-3.6H121.4z M130.4,86h2.8V72h-2.8V86z M137.5,86h8.2v-2.4h-5.3V80h4.5v-2.4h-4.5v-3.3h5.3V72h-8.2V86z
	 M157.4,80.8c0,1.9-1.1,3-2.8,3c-1.8,0-2.8-1.1-2.8-3V72h-2.8v8.5c0,3.7,2.2,5.9,5.7,5.9c3.5,0,5.7-2.2,5.7-5.9V72h-2.8V80.8z
	 M164.1,86h2.8v-5.7h1.5l3.7,5.7h3.3l-4.4-6.2c1.4-0.7,2.3-1.9,2.3-3.6c0-2.6-1.9-4.2-5-4.2h-4.3V86z M168.5,74.4
	c1.2,0,1.9,0.7,1.9,1.8c0,1.1-0.7,1.8-1.9,1.8h-1.6v-3.6H168.5z"/>
<path class="st8" d="M72,121.7l-1.9,1.7h-0.5l1.1-1.9H72V121.7z M70.6,128.3h-0.4c-0.5,0.6-1.1,1.1-1.6,1.1c-0.6,0-0.8-0.3-0.8-1.1
	c0-0.3,0-0.6,0.1-0.9l3.3-1.1c0.6-1.5-0.1-2.2-1-2.2c-1.5,0-3.3,2.7-3.3,4.9c0,1,0.5,1.6,1.2,1.6C68.9,130.5,69.9,129.7,70.6,128.3z
	 M69.5,125c0.4,0,0.8,0.3,0.6,1.1l-2,0.5C68.4,125.7,69,125,69.5,125z M63.1,125h1.1l-1.7,4.7c-0.2,0.4,0.1,0.8,0.5,0.8
	c1.2,0,2.7-1,3.2-2.5h-0.3c-0.4,0.6-1.4,1.3-2.1,1.4l1.6-4.4H67l0.2-0.7h-1.6l0.6-1.7h-0.6l-1.1,1.7l-1.3,0.2V125z M61.6,124.1
	c0.2,0,0.5,0.2,0.4,0.7l-1.9,4.7c0.5-0.1,1-0.6,1.3-1h0.3c-0.5,1.2-1.5,2-2.4,2c-0.2,0-0.5-0.2-0.4-0.7l1.8-4.7
	c-0.5,0.1-1,0.6-1.3,1h-0.3C59.6,125,60.7,124.1,61.6,124.1z M62.2,122.9c0.4,0,0.7-0.3,0.7-0.7c0-0.4-0.3-0.7-0.7-0.7
	c-0.4,0-0.7,0.3-0.7,0.7C61.5,122.6,61.8,122.9,62.2,122.9z M53.5,126.8c0.4-1,0.3-1.4,0-1.4c-0.2,0-0.5,0.3-0.8,0.7h-0.3
	c0.5-1,1.1-2,1.7-2c0.6,0,0.8,0.6,0.8,1.2v0.9c0.1-0.1,0.2-0.2,0.3-0.3h0c0.8-1,1.5-1.7,2.2-1.7c0.6,0,0.9,0.4,0.9,0.9
	c0,0.3-0.1,0.7-0.3,1.1l-1.7,3.3c0.5-0.1,1-0.6,1.3-1h0.3c-0.5,1.2-1.6,2-2.5,2c-0.4,0-0.7-0.4-0.5-0.8l1.9-3.7
	c0.2-0.4,0.3-0.7-0.1-0.7c-0.5,0-1.5,0.8-2.1,1.5l-1.3,3.3c-0.1,0.3-0.3,0.4-0.6,0.4c-0.5,0-0.8-0.3-0.5-0.9L53.5,126.8z
	 M52.2,125.6c0.2-0.8,0.1-1.4-0.5-1.4c-0.7,0-0.9,0.5-1.7,2l0,0.1v-0.9c0-0.6-0.2-1.2-0.8-1.2c-0.7,0-1.3,1-1.7,2h0.3
	c0.3-0.5,0.6-0.7,0.9-0.7c0.3,0,0.4,0.4,0,1.4l-1.3,2.8c-0.2,0.5,0,0.9,0.5,0.9c0.3,0,0.5-0.1,0.6-0.4l1.3-3.3
	c0.4-0.4,0.7-0.8,1.1-1.2H52.2z M45.8,126.1c0.2-0.8-0.2-1.1-0.6-1.1c-0.5,0-1.1,0.7-1.4,1.7L45.8,126.1z M46.3,128.3h-0.4
	c-0.5,0.6-1.1,1.1-1.6,1.1c-0.6,0-0.8-0.3-0.8-1.1c0-0.3,0-0.6,0.1-0.9l3.3-1.1c0.6-1.5-0.1-2.2-1-2.2c-1.5,0-3.3,2.7-3.3,4.9
	c0,1,0.5,1.6,1.2,1.6C44.7,130.5,45.6,129.7,46.3,128.3z M39.9,125h-1.1v-0.5l1.3-0.2l1.1-1.7h0.6l-0.6,1.7h1.6l-0.2,0.7h-1.6
	l-1.6,4.4c0.7-0.1,1.7-0.8,2.1-1.4h0.3c-0.6,1.5-2,2.5-3.2,2.5c-0.4,0-0.6-0.4-0.5-0.8L39.9,125z M33.1,128.7c0-1.5,1.6-3.4,2.5-3.4
	c0.2,0,0.4,0,0.6,0.1l-0.9,2.5c-0.5,0.7-1.4,1.5-1.8,1.5C33.3,129.3,33.1,129.1,33.1,128.7z M37.6,123.8l0.5,0l-1.7,4
	c-0.4,1-0.2,1.4,0,1.4c0.2,0,0.5-0.3,0.9-0.7h0.3c-0.5,1-1.1,2-1.7,2c-0.6,0-0.9-0.6-0.8-1.7l0-0.4l-0.1,0.2c-0.7,1-1.4,1.9-2,1.9
	c-0.6,0-0.9-0.4-0.9-0.9c0-2.3,2.5-5.3,4.9-5.3H37L37.6,123.8z M33,125.6c0.2-0.8,0.1-1.4-0.5-1.4c-0.7,0-0.9,0.5-1.7,2l0,0.1v-0.9
	c0-0.6-0.2-1.2-0.8-1.2c-0.7,0-1.3,1-1.7,2h0.3c0.3-0.5,0.6-0.7,0.8-0.7c0.3,0,0.4,0.4,0,1.4l-1.3,2.9c-0.2,0.5,0,0.9,0.5,0.9
	c0.3,0,0.5-0.1,0.6-0.4l1.3-3.3c0.4-0.4,0.7-0.8,1.1-1.2L33,125.6L33,125.6z M24.8,130l-0.1,0.4H20l0.1-0.4c1.4-0.3,1.7-0.4,2.3-2
	l1.3-3.5c0.6-1.6,0.5-1.7-0.8-2l0.1-0.4h6.1l-0.4,1.9h-0.4c0-1.2-0.1-1.5-1.2-1.5h-0.3c-1.1,0-1.2,0.2-1.5,1l-0.9,2.3h1.3
	c0.8,0,1.2-0.5,1.5-1.2h0.4l-1,2.8h-0.4c0.1-0.9,0.1-1.2-0.7-1.2h-1.3l-0.6,1.6C23,129.6,23.2,129.7,24.8,130
	C24.7,129.9,24.7,130,24.8,130z"/>
<path class="st8" d="M28.7,106.4l-1.9,1.3v0h-0.5l1.1-1.6h1.2V106.4z M41.7,115.8l3-7.9l-0.1-0.1l-2.1,0.2v0.2l0.4,0.3
	c0.3,0.3,0.3,0.5,0,1.3l0,0.1l-2.3,6.1c-0.2,0.4,0.1,0.8,0.5,0.8c0.9,0,1.9-0.9,2.4-2h-0.3C42.9,115.2,42.2,115.7,41.7,115.8z
	 M55.4,109.7l1.9-1.7v-0.2H56l-1.1,1.9H55.4z M55.5,114.5h0.4c-0.7,1.4-1.7,2.3-2.5,2.3c-0.8,0-1.2-0.6-1.2-1.6
	c0-2.2,1.8-4.9,3.3-4.9c0.9,0,1.7,0.7,1,2.2l-3.3,1.1c-0.1,0.3-0.1,0.6-0.1,0.9c0,0.7,0.3,1.1,0.8,1.1
	C54.5,115.6,55,115.1,55.5,114.5z M55.4,112.4c0.2-0.8-0.2-1.1-0.6-1.1c-0.5,0-1.1,0.7-1.4,1.6L55.4,112.4z M49.5,111.3h-1.1v-0.5
	l1.3-0.2l1.1-1.7h0.6l-0.6,1.7h1.6l-0.2,0.7h-1.6l-1.6,4.4c0.7-0.1,1.7-0.8,2.1-1.4h0.3c-0.6,1.5-2,2.5-3.2,2.5
	c-0.4,0-0.6-0.4-0.5-0.8L49.5,111.3z M47.3,111.1c0.1-0.4-0.2-0.7-0.4-0.7c-0.9,0-2.1,0.9-2.5,2h0.3c0.3-0.4,0.8-0.9,1.3-1l-1.8,4.7
	c-0.2,0.4,0.2,0.7,0.4,0.7c0.9,0,1.9-0.9,2.4-2h-0.3c-0.3,0.4-0.8,0.9-1.3,1L47.3,111.1z M48.3,108.5c0,0.4-0.3,0.7-0.7,0.7
	c-0.4,0-0.7-0.3-0.7-0.7c0-0.4,0.3-0.7,0.7-0.7C47.9,107.7,48.3,108.1,48.3,108.5z M38.2,111.6c-0.9,0-2.5,2-2.5,3.4
	c0,0.4,0.1,0.6,0.4,0.6c0.4,0,1.2-0.8,1.8-1.5l0.9-2.5C38.5,111.6,38.4,111.6,38.2,111.6z M40.6,110.1l-0.5,0l-0.6,0.6h-0.1
	c-2.4,0-4.9,3-4.9,5.3c0,0.5,0.3,0.9,0.9,0.9c0.7,0,1.3-0.9,2-1.9l0.1-0.2l0,0.4c-0.1,1.1,0.2,1.7,0.8,1.7c0.7,0,1.3-1,1.7-2h-0.3
	c-0.3,0.5-0.6,0.7-0.9,0.7c-0.2,0-0.4-0.4,0-1.4L40.6,110.1z M30.5,116.6c-0.9,0.3-1.5,0.7-1.5,1.4c0,0.6,0.5,0.8,1.7,0.8
	c1.5,0,2.3-0.4,2.3-1c0-0.3-0.3-0.4-1.2-0.7C31.2,116.9,30.8,116.8,30.5,116.6z M31.5,114.2c-0.4,0-0.5-0.3-0.5-0.7
	c0-1.2,0.6-2.6,1.5-2.6c0.4,0,0.5,0.3,0.5,0.7C33,112.7,32.4,114.2,31.5,114.2z M32.3,116c1.1,0.3,1.8,0.6,1.8,1.4
	c0,1-1.8,2.1-4,2.1c-1.3,0-2.3-0.3-2.3-1.2c0-0.8,0.7-1.4,2.5-1.9c-0.2-0.2-0.3-0.4-0.3-0.6c0-0.5,0.4-0.9,1.2-1.2
	c-0.7-0.1-1.2-0.7-1.2-1.5c0-1.3,1-2.7,2.7-2.7c0.3,0,0.6,0.1,0.9,0.2h1.8l-0.2,0.7H34c0.1,0.2,0.1,0.4,0.1,0.6c0,1.2-1,2.6-2.5,2.7
	c-0.4,0.2-0.6,0.5-0.6,0.8c0,0.3,0.3,0.4,1.1,0.6h0C32.1,116,32.2,116,32.3,116z M25.9,112.6c0.8,0,0.8,0.3,0.7,1.2h0.4l1-2.8h-0.4
	c-0.4,0.7-0.7,1.2-1.5,1.2h-1.7l0.8-2.3c0.3-0.8,0.4-1,1.5-1h0.8c1.1,0,1.2,0.3,1.2,1.5h0.4l0.4-1.9H23l-0.1,0.4
	c1.3,0.3,1.4,0.4,0.8,2l-1.3,3.5c-0.6,1.6-0.8,1.7-2.3,2l-0.1,0.4h7.2l1.3-2.1H28c-0.8,0.8-1.7,1.6-3.3,1.6c-1.8,0-1.8-0.1-1.2-1.6
	c0-0.1,0.1-0.2,0.1-0.3l0.6-1.6L25.9,112.6L25.9,112.6z"/>
<path class="st8" d="M31.9,95.5c0.4,0,0.7-0.3,0.7-0.7S32.3,94,31.9,94c-0.4,0-0.7,0.3-0.7,0.7C31.2,95.2,31.5,95.5,31.9,95.5z
	 M33.7,103.1c1.6,0,4.2-2.9,4.2-5.1c0-1-0.2-1.3-0.9-1.3c-0.8,0-1.6,0.9-2.4,2l1.7-4.5L36.1,94L34,94.3v0.2l0.4,0.3
	c0.3,0.3,0.2,0.5,0,1.3l0,0.1l-1.8,4.8c-0.2,0.4-0.3,0.9-0.3,1C32.2,102.5,33,103.1,33.7,103.1z M55.2,96l1.9-1.7V94h-1.2L54.7,96
	H55.2z M55.3,100.8h0.4c-0.8,1.4-1.7,2.3-2.6,2.3c-0.8,0-1.2-0.5-1.2-1.6c0-2.2,1.8-4.9,3.3-4.9c0.9,0,1.7,0.7,1,2.2L53,99.9
	c-0.1,0.3-0.1,0.6-0.1,0.9c0,0.7,0.3,1.1,0.8,1.1C54.2,101.9,54.8,101.4,55.3,100.8z M55.2,98.7c0.2-0.8-0.2-1.1-0.6-1.1
	c-0.5,0-1.1,0.7-1.4,1.6L55.2,98.7z M49.3,97.6h-1.1v-0.5l1.3-0.2l1.1-1.7h0.6l-0.6,1.7h1.6l-0.2,0.7h-1.6l-1.6,4.4
	c0.7-0.1,1.7-0.8,2.1-1.4h0.3c-0.6,1.5-2,2.5-3.2,2.5c-0.4,0-0.6-0.4-0.5-0.8L49.3,97.6z M47.7,98.1c0.2-0.8,0.1-1.4-0.5-1.4
	c-0.7,0-0.9,0.5-1.7,2l0,0.1v-0.9c0-0.6-0.2-1.2-0.8-1.2c-0.7,0-1.3,1-1.7,2h0.3c0.3-0.5,0.6-0.7,0.8-0.7c0.3,0,0.4,0.4,0,1.4
	l-1.3,2.8c-0.2,0.5,0,0.9,0.5,0.9c0.3,0,0.5-0.1,0.6-0.4l1.3-3.3c0.4-0.4,0.7-0.8,1.1-1.2H47.7z M41.3,98.7c0.2-0.8-0.2-1.1-0.6-1.1
	c-0.5,0-1.1,0.7-1.4,1.6L41.3,98.7z M41.8,100.8h-0.4c-0.5,0.6-1.1,1.1-1.6,1.1c-0.6,0-0.8-0.3-0.8-1.1c0-0.3,0-0.6,0.1-0.9l3.3-1.1
	c0.6-1.5-0.1-2.2-1-2.2c-1.5,0-3.3,2.7-3.3,4.9c0,1,0.5,1.6,1.2,1.6C40.1,103.1,41.1,102.2,41.8,100.8z M33.4,101.6
	c0,0.3,0.5,0.6,0.8,0.6c1.3,0,2.5-2.3,2.5-3.6c0-0.4-0.2-0.6-0.5-0.6c-0.5,0-1.4,0.7-1.9,1.4l-0.5,1.4
	C33.6,101.1,33.4,101.5,33.4,101.6z M31.3,96.7c0.2,0,0.5,0.2,0.4,0.7l-1.9,4.7c0.5-0.1,1-0.6,1.3-1h0.3c-0.5,1.2-1.5,2-2.4,2
	c-0.2,0-0.6-0.2-0.4-0.7l1.8-4.7c-0.5,0.1-1,0.6-1.3,1h-0.3C29.3,97.5,30.4,96.7,31.3,96.7z M23,94.6h4.3L27.2,95
	c-1.5,0.3-1.7,0.4-2.3,2l-1.3,3.5c-0.6,1.7-0.5,1.9,0.6,1.9c1.4,0,2.3-1,3-1.8c0.1-0.1,0.1-0.1,0.2-0.2H28l-1.4,2.5H20l0.1-0.4
	c1.4-0.3,1.7-0.4,2.3-2l1.3-3.5c0.6-1.6,0.5-1.7-0.8-2L23,94.6z"/>
<defs>
	<filter id="Adobe_OpacityMaskFilter_00000078022450039642909590000013123962885895666864_" filterUnits="userSpaceOnUse">
		<feColorMatrix  type="matrix" values="1 0 0 0 0  0 1 0 0 0  0 0 1 0 0  0 0 0 1 0"/>
	</filter>
</defs>
<mask maskUnits="userSpaceOnUse" id="mask1_00000131335489935457979050000012340637431111137179_">
	
		<rect x="18" y="94" style="fill:#C4C4C4;filter:url(#Adobe_OpacityMaskFilter_00000078022450039642909590000013123962885895666864_);" width="54" height="37"/>
</mask>
<g class="st10">
</g>
</svg>
